<svg width="44" height="40" viewBox="0 0 44 40" fill="none" xmlns="http://www.w3.org/2000/svg">
<g clip-path="url(#clip0_3728_19271)">
<path fill-rule="evenodd" clip-rule="evenodd" d="M33.8623 19.7441C33.8724 19.7441 33.8824 24.3029 33.8824 40.0187H27.7038L27.7137 25.9493L28.6305 25.1506C29.1388 24.7205 30.0854 23.8236 30.7432 23.1723C31.401 22.5211 32.3675 21.4889 32.8858 20.8747C33.404 20.2602 33.8424 19.7564 33.8623 19.7441ZM24.5946 28.3577C24.6046 28.3453 24.6145 30.975 24.6145 40.0187H18.5356V32.0317L19.1136 31.7121C19.4226 31.5401 20.3095 31.0364 21.0768 30.6064C21.8441 30.1639 22.9402 29.4759 23.5183 29.0826C24.0963 28.6894 24.5747 28.3577 24.5946 28.3577ZM15.3268 33.5185C15.4164 33.5061 15.4464 34.2312 15.4464 40.0187H9.26781L9.31763 35.5705L11.0117 35.0299C11.9485 34.7473 13.2639 34.2802 13.9515 34.01C14.6391 33.7519 15.2571 33.5185 15.3268 33.5185ZM5.9593 36.3446C6.17854 36.3323 6.17854 36.3446 6.17854 40.0187H0V38.6055C0 37.2416 0.00996465 37.1925 0.229204 37.1433C0.348789 37.1065 1.09619 37.0203 1.89343 36.9467C2.69065 36.8607 3.87653 36.7009 4.53425 36.5781C5.19196 36.4552 5.82975 36.3569 5.9593 36.3446Z" fill="#1D1B19"/>
<path d="M43.0582 4.6508C43.3244 3.84136 43.6033 3.13462 43.6794 3.08318C43.7555 3.03191 43.8315 2.98047 43.857 2.98047C43.8697 2.98047 43.8823 12.0644 43.8823 41.9805L35.9583 41.9162L35.8823 17.8206L36.6936 16.7286C37.1374 16.1247 37.8347 15.1097 38.2658 14.48C38.6842 13.8504 39.3181 12.8096 39.6984 12.1673C40.0661 11.5377 40.6112 10.5227 40.9029 9.91883C41.2072 9.31482 41.7016 8.22278 42.0058 7.47756C42.3229 6.73233 42.792 5.46025 43.0582 4.6508Z" fill="#FF0E02"/>
</g>
<defs>
<clipPath id="clip0_3728_19271">
<rect width="44" height="40" fill="white"/>
</clipPath>
</defs>
</svg>
