<svg width="151" height="28" viewBox="0 0 151 28" fill="none" xmlns="http://www.w3.org/2000/svg">
<path fill-rule="evenodd" clip-rule="evenodd" d="M39.3492 14.6049L52.6244 14.6696L53.2976 14.9929C53.7605 15.2192 54.1286 15.4994 54.4863 15.9089C54.7703 16.2323 55.1069 16.7711 55.2332 17.0944C55.4435 17.6549 55.4541 17.9351 55.5277 22.3214C55.5593 25.0589 55.6329 27.085 55.7065 27.279C55.7591 27.4514 55.8433 27.6885 55.8748 27.7963C55.9379 27.9687 55.7486 27.9795 49.7001 27.9256L49.5633 27.4945C49.5002 27.2574 49.395 26.8587 49.2583 26.1474L47.8382 27.9795H44.7561C42.2946 27.9795 41.5583 27.9472 41.0533 27.8071C40.7062 27.7209 40.2328 27.5269 40.0014 27.3868C39.77 27.2467 39.4229 26.9557 39.223 26.7186C39.0231 26.4923 38.7391 26.0396 38.5919 25.7163C38.3394 25.1666 38.3184 25.0158 38.3184 23.5069C38.3184 21.9766 38.3289 21.858 38.6024 21.2976C38.7602 20.9743 39.0863 20.4677 39.3387 20.1875C39.6017 19.8858 40.033 19.5409 40.9481 19.0882L44.7982 19.0344C48.4693 18.9805 48.6692 18.9697 48.8796 18.7649C49.0374 18.614 49.111 18.4201 49.1005 18.1183C49.1005 17.8812 49.0374 17.5902 48.9532 17.4717C48.806 17.2669 48.6692 17.2561 44.5878 17.2346C40.7167 17.2022 40.3275 17.2238 39.8121 17.3962C39.5175 17.5148 39.1704 17.6441 39.0652 17.698C38.8759 17.7842 38.8654 17.7626 38.9285 17.4178C38.96 17.213 39.0652 16.4909 39.1704 15.8227L39.3492 14.6049ZM44.6719 22.343C44.6088 22.5693 44.5773 23.1729 44.5983 23.6902C44.6193 24.423 44.6719 24.6817 44.8508 24.9296C44.9665 25.0912 45.2294 25.2852 45.4293 25.3606C45.6292 25.4253 46.3129 25.49 46.9441 25.49C47.8487 25.5007 48.1853 25.4576 48.4693 25.3068C48.6797 25.199 48.9217 24.9619 49.0269 24.7463C49.1741 24.4446 49.2057 24.0781 49.2057 22.9357V21.5131C45.5135 21.5131 45.3241 21.5347 45.0717 21.7287C44.9139 21.8472 44.735 22.1275 44.6719 22.343ZM143.825 9.60422L143.878 12.1369H139.039L139.018 10.9191C139.008 10.2401 139.05 9.65811 139.092 9.615C139.144 9.58266 140.228 9.56111 143.825 9.60422ZM58.0102 14.6157L64.185 14.6696L64.3533 15.4994C64.4374 15.9521 64.5321 16.34 64.5637 16.3724C64.5952 16.3939 64.9213 16.0167 65.9837 14.6264L68.9291 14.6157C70.6542 14.6157 72.1374 14.6588 72.5056 14.7342C72.8527 14.7989 73.3051 14.939 73.5049 15.0468C73.7048 15.1545 74.1045 15.4455 74.378 15.7042C74.6726 15.9736 74.9986 16.4155 75.1354 16.7172C75.2616 17.0082 75.4299 17.504 75.493 17.8165C75.5667 18.183 75.6088 19.8534 75.6088 22.3969C75.6088 25.5439 75.6403 26.5461 75.756 27.0096C75.8402 27.3329 75.9349 27.6885 75.9664 27.7855C76.0295 27.9688 75.8086 27.9795 72.4004 27.9795C70.4018 27.9795 68.7713 27.9364 68.7713 27.8933C68.7713 27.8502 68.8555 27.6239 68.9501 27.3868C69.1184 26.9988 69.1395 26.4923 69.1921 17.8489L68.5609 17.2022H67.0672C65.7207 17.1914 65.5314 17.213 65.2789 17.4178C65.1106 17.5363 64.9318 17.8165 64.8687 18.0321C64.7951 18.3123 64.774 19.7457 64.8056 22.537C64.8372 25.8241 64.8792 26.7294 65.0055 27.1173C65.1001 27.3868 65.1948 27.6885 65.2369 27.7855C65.3 27.9688 65.0791 27.9795 57.9366 27.9795L58.168 27.3006C58.3994 26.6539 58.4099 26.4923 58.4415 21.4054C58.4625 17.1052 58.4415 16.0814 58.3153 15.6395C58.2311 15.3377 58.1364 14.9929 58.0944 14.8528L58.0102 14.6157ZM87.1693 14.6372C91.7662 14.6264 92.6813 14.648 93.2178 14.7881C93.565 14.8851 94.0804 15.1114 94.3749 15.3054C94.659 15.4886 95.0482 15.8658 95.2375 16.1353C95.4374 16.3939 95.6898 16.8789 95.8055 17.213C96.0054 17.7626 96.0159 18.0105 95.9528 25.2421L95.5846 25.9318C95.3848 26.309 95.0271 26.7832 94.7957 26.988C94.5643 27.1928 94.1225 27.4945 93.2178 27.9364H81.226L80.5212 27.5808C79.9847 27.3221 79.7007 27.085 79.3746 26.6647C79.1432 26.3522 78.8381 25.9103 78.7224 25.6732C78.5015 25.2529 78.491 25.1128 78.491 21.3084C78.491 17.4609 78.5015 17.3531 78.7224 16.8897C78.8592 16.6202 79.1432 16.1784 79.3641 15.9197C79.5955 15.6503 80.0058 15.2946 80.2898 15.133C80.5738 14.9713 81.0261 14.7989 81.2786 14.745C81.5416 14.6911 84.1924 14.6372 87.1693 14.6372ZM85.0339 17.7519C84.8866 18.0321 84.8551 18.5063 84.8551 21.3838C84.8551 24.3799 84.8761 24.7248 85.0444 24.9619C85.1391 25.102 85.3811 25.2852 85.5704 25.3606C85.7913 25.4576 86.4119 25.5007 87.3586 25.5007C88.6209 25.5007 88.8419 25.4792 89.1469 25.2852C89.3713 25.1487 89.5221 24.9439 89.5992 24.6709C89.6729 24.4122 89.6939 23.0974 89.6729 21.0497L89.6413 17.8381L88.9576 17.213C86.2752 17.213 85.4652 17.2561 85.3705 17.3208C85.2759 17.3854 85.1286 17.5794 85.0339 17.7519ZM98.3933 14.6264H111.258V18.3985L110.164 17.8057L105.157 17.7519L105.189 22.2999C105.22 26.3198 105.241 26.9126 105.399 27.3437C105.504 27.6023 105.588 27.861 105.588 27.9041C105.578 27.9472 103.947 27.9903 101.949 27.9903C98.5405 27.9903 98.3301 27.9687 98.3933 27.7963C98.4248 27.6885 98.53 27.3652 98.6142 27.0742C98.7509 26.6324 98.7825 25.6085 98.8245 21.5239C98.8561 17.2453 98.8456 16.4047 98.6983 15.8119C98.6142 15.424 98.509 14.9929 98.4669 14.8635L98.3933 14.6264ZM121.62 14.6372C126.521 14.6264 126.805 14.6372 127.458 14.842C127.836 14.9605 128.362 15.23 128.646 15.4347C128.92 15.6395 129.256 15.9952 129.404 16.2215C129.54 16.437 129.761 16.9005 129.877 17.2453C130.066 17.795 130.087 18.1291 130.087 22.6017H119.358L119.389 23.6794C119.41 24.7356 119.421 24.7571 120.094 25.4576L123.65 25.49C125.596 25.5007 127.594 25.4684 128.089 25.4145C128.583 25.3606 129.162 25.2313 129.372 25.1128C129.593 25.005 129.793 24.9403 129.814 24.9727C129.846 25.005 129.761 25.6947 129.404 28.0011L115.834 27.9364L115.34 27.6993C115.056 27.5592 114.614 27.2359 114.34 26.9772C114.056 26.7186 113.709 26.2444 113.551 25.9318C113.383 25.6085 113.215 25.0589 113.152 24.7032C113.099 24.3476 113.046 22.8495 113.046 21.3623C113.046 19.8858 113.099 18.3554 113.152 17.9674C113.215 17.5794 113.362 17.0513 113.488 16.7819C113.614 16.5125 113.941 16.0706 114.204 15.8012C114.467 15.5317 114.887 15.1976 115.15 15.0683C115.413 14.9282 115.813 14.7773 116.044 14.7342C116.276 14.6911 118.79 14.648 121.62 14.6372ZM119.716 17.5471C119.421 17.8596 119.411 17.9027 119.411 18.9697V20.069H123.829C123.829 17.892 123.818 17.8704 123.513 17.5363L123.197 17.213H120.031L119.716 17.5471ZM139.123 14.6264V19.584C139.123 23.7764 139.155 24.5955 139.281 24.8649C139.376 25.0481 139.607 25.2636 139.807 25.3499C140.06 25.4684 140.543 25.5115 141.332 25.5115C142.048 25.5115 142.626 25.4576 142.837 25.3714C143.026 25.296 143.257 25.1128 143.363 24.9727C143.531 24.7248 143.552 24.3368 143.541 20.3923C143.541 17.0729 143.51 15.9628 143.394 15.5425C143.321 15.2515 143.226 14.9174 143.194 14.8204C143.131 14.6372 143.331 14.6264 149.853 14.6264L149.884 20.6941C149.916 25.8887 149.948 26.8156 150.084 27.182C150.179 27.4191 150.284 27.6993 150.316 27.8071C150.379 27.9795 150.2 27.9903 144.436 28.0011L144.278 27.1712C144.194 26.7186 144.099 26.3306 144.067 26.309C144.046 26.2983 143.71 26.6647 142.647 27.9903H139.439C137.23 27.9903 136.052 27.9472 135.652 27.8502C135.336 27.7748 134.863 27.5915 134.6 27.4407C134.348 27.2898 133.969 26.9665 133.769 26.7401C133.569 26.5138 133.285 26.0612 132.865 25.1343L132.801 20.554C132.759 16.8573 132.707 15.8874 132.58 15.4886C132.496 15.23 132.381 14.9174 132.339 14.8204C132.265 14.6372 132.465 14.6264 139.123 14.6264Z" fill="#081423"/>
<g clip-path="url(#clip0_3222_14612)">
<path fill-rule="evenodd" clip-rule="evenodd" d="M27.076 11.7891C27.084 11.7891 27.092 15.434 27.092 27.9995H22.1516L22.1596 16.7504L22.8927 16.1118C23.2991 15.7679 24.056 15.0508 24.5819 14.5301C25.1079 14.0094 25.8808 13.1841 26.2951 12.693C26.7095 12.2017 27.06 11.7988 27.076 11.7891ZM19.6656 18.6761C19.6736 18.6662 19.6815 20.7687 19.6815 27.9995H14.8209V21.6136L15.283 21.3581C15.5301 21.2205 16.2393 20.8178 16.8528 20.474C17.4663 20.1202 18.3428 19.5701 18.805 19.2556C19.2672 18.9412 19.6497 18.6761 19.6656 18.6761ZM12.2551 22.8024C12.3268 22.7925 12.3508 23.3722 12.3508 27.9995H7.41044L7.45028 24.4431L8.80488 24.0108C9.55389 23.7848 10.6057 23.4114 11.1555 23.1953C11.7053 22.989 12.1994 22.8024 12.2551 22.8024ZM4.765 25.062C4.94029 25.0521 4.94029 25.062 4.94029 27.9995H0V26.8697C0 25.7791 0.00796763 25.7399 0.183269 25.7006C0.278888 25.6711 0.876502 25.6023 1.51396 25.5434C2.15142 25.4746 3.09963 25.3468 3.62554 25.2486C4.15144 25.1504 4.66141 25.0718 4.765 25.062Z" fill="#081423"/>
<path d="M34.9471 1.22025C35.1547 0.628915 35.3723 0.112617 35.4317 0.0750373C35.491 0.03758 35.5503 0 35.5702 0C35.5801 0 35.59 6.6362 35.59 28.4911L29.4089 28.4442L29.3496 10.8414L29.9825 10.0436C30.3286 9.60245 30.8725 8.86092 31.2088 8.40087C31.5352 7.94094 32.0297 7.18062 32.3263 6.71136C32.6131 6.25144 33.0383 5.5099 33.2659 5.06877C33.5032 4.62751 33.8889 3.82973 34.1262 3.28531C34.3735 2.74089 34.7394 1.81158 34.9471 1.22025Z" fill="#EB0000"/>
</g>
<defs>
<clipPath id="clip0_3222_14612">
<rect width="35.3701" height="27.9999" fill="white"/>
</clipPath>
</defs>
</svg>
